<svg xmlns="http://www.w3.org/2000/svg" viewBox="0 0 841.9 595.3">
  <g fill="#61dafb">
    <path d="M666.3 296.5c0-32.5-40.7-64.5-85.3-64.5h-83.3v151h83.3c44.6 0 85.3-32.5 85.3-64.5zm-514.8 0c0-32.5 40.7-64.5 85.3-64.5h83.3v151h-83.3c-44.6 0-85.3-32.5-85.3-64.5z" fill="#000000" />
    <path d="M493.5 296.5c0-32.5-40.7-64.5-85.3-64.5h-83.3v151h83.3c44.6 0 85.3-32.5 85.3-64.5z" fill="#61dafb" />
    <path d="M578.5 296.5c0-32.5-40.7-64.5-85.3-64.5h-83.3v151h83.3c44.6 0 85.3-32.5 85.3-64.5z" fill="#000000" />
  </g>
</svg>
